<svg width="27" height="28" viewBox="0 0 27 28" fill="none" xmlns="http://www.w3.org/2000/svg">
<path d="M13.4951 26.41C20.3987 26.41 25.9951 20.8136 25.9951 13.91C25.9951 7.00647 20.3987 1.41003 13.4951 1.41003C6.59156 1.41003 0.995117 7.00647 0.995117 13.91C0.995117 20.8136 6.59156 26.41 13.4951 26.41Z" stroke="white" stroke-width="2"/>
<path d="M18.2359 12.924C18.4519 11.483 17.3539 10.708 15.8539 10.191L16.3409 8.23903L15.1519 7.94303L14.6779 9.84303C14.3613 9.7656 14.044 9.69126 13.7259 9.62003L14.2039 7.70603L13.0149 7.41003L12.5279 9.36203C12.274 9.30484 12.0206 9.24517 11.7679 9.18303L11.7699 9.17703L10.1309 8.76703L9.8149 10.037C9.8149 10.037 10.6969 10.239 10.6779 10.252C11.1599 10.372 11.2469 10.69 11.2319 10.942L10.6779 13.167C10.7119 13.1744 10.7529 13.1877 10.8009 13.207L10.6759 13.175L9.8989 16.291C9.8389 16.437 9.6899 16.657 9.3539 16.573C9.3659 16.591 8.4899 16.358 8.4899 16.358L7.8999 17.718L9.4469 18.104C9.73424 18.1774 10.0166 18.25 10.2939 18.322L9.8019 20.297L10.9889 20.593L11.4759 18.639C11.7999 18.727 12.1156 18.809 12.4229 18.885L11.9379 20.83L13.1259 21.126L13.6179 19.155C15.6439 19.538 17.1679 19.384 17.8099 17.551C18.3259 16.075 17.7839 15.224 16.7179 14.669C17.4939 14.489 18.0799 13.979 18.2359 12.924ZM15.5199 16.731C15.1529 18.207 12.6679 17.409 11.8619 17.209L12.5149 14.593C13.3199 14.794 15.9039 15.193 15.5199 16.731ZM15.8869 12.903C15.5519 14.245 13.4839 13.563 12.8129 13.396L13.4049 11.023C14.0749 11.19 16.2359 11.503 15.8869 12.903Z" fill="white"/>
</svg>
