<svg width="20" height="18" viewBox="0 0 20 18" fill="none" xmlns="http://www.w3.org/2000/svg">
<path d="M10.7501 10.5L10.9181 10.03L10.9031 10.024L10.7501 10.5ZM0.750137 17L0.265137 16.879L0.750137 17.5V17ZM19.2351 16.879L18.4951 13.917L17.5251 14.16L18.2651 17.121L19.2351 16.879ZM16.9101 12.169L10.9181 10.03L10.5821 10.971L16.5741 13.111L16.9101 12.169ZM6.91514 10.684L2.61014 12.174L2.93714 13.118L7.24214 11.628L6.91514 10.684ZM1.00214 13.93L0.265137 16.879L1.23514 17.121L1.97214 14.172L1.00214 13.93ZM10.9031 10.024L8.81014 9.352L8.50414 10.304L10.5981 10.976L10.9031 10.024ZM0.750137 17.5H4.75014V16.5H0.750137V17.5ZM2.61014 12.174C2.21712 12.31 1.86424 12.5409 1.58346 12.8477C1.30268 13.1545 1.10287 13.5265 1.00214 13.93L1.97214 14.172C2.03263 13.9299 2.15255 13.7067 2.32106 13.5227C2.48956 13.3387 2.70131 13.1996 2.93714 13.118L2.61014 12.174ZM18.4951 13.917C18.3953 13.5177 18.1983 13.1492 17.9218 12.8442C17.6453 12.5393 17.2978 12.3074 16.9101 12.169L16.5741 13.111C16.8066 13.1942 17.0149 13.3334 17.1806 13.5164C17.3463 13.6994 17.4653 13.9205 17.5251 14.16L18.4951 13.917ZM13.2501 5.5C13.2501 7.766 11.6301 9.5 9.75014 9.5V10.5C12.2891 10.5 14.2501 8.204 14.2501 5.5H13.2501ZM9.75014 9.5C7.87014 9.5 6.25014 7.766 6.25014 5.5H5.25014C5.25014 8.204 7.21114 10.5 9.75014 10.5V9.5ZM6.25014 5.5C6.25014 3.234 7.87014 1.5 9.75014 1.5V0.5C7.21114 0.5 5.25014 2.796 5.25014 5.5H6.25014ZM9.75014 1.5C11.6301 1.5 13.2501 3.234 13.2501 5.5H14.2501C14.2501 2.796 12.2891 0.5 9.75014 0.5V1.5Z" fill="white"/>
</svg>
