<svg width="8" height="8" viewBox="0 0 8 8" fill="none" xmlns="http://www.w3.org/2000/svg">
<path fill-rule="evenodd" clip-rule="evenodd" d="M3.9679 0.650019C4.16793 0.449994 4.49223 0.449994 4.69225 0.650018L7.68006 3.63782C7.77611 3.73388 7.83008 3.86416 7.83008 4C7.83008 4.13584 7.77611 4.26612 7.68006 4.36218L4.69225 7.34998C4.49223 7.55001 4.16793 7.55001 3.9679 7.34998C3.76788 7.14996 3.76788 6.82565 3.9679 6.62563L6.08133 4.51219H1.34227C1.0594 4.51219 0.830078 4.28288 0.830078 4C0.830078 3.71712 1.0594 3.4878 1.34227 3.4878H6.08133L3.9679 1.37437C3.76788 1.17435 3.76788 0.850043 3.9679 0.650019Z" fill="white"/>
</svg>
